<svg version="1.1" xmlns="http://www.w3.org/2000/svg" viewBox="0 0 1045 926" width="1045" height="926" filter="invert(93%) hue-rotate(180deg)">
  <!-- svg-source:excalidraw -->
  
  <defs>
    <style class="style-fonts">
      @font-face {
        font-family: "Virgil";
        src: url("https://excalidraw.com/Virgil.woff2");
      }
      @font-face {
        font-family: "Cascadia";
        src: url("https://excalidraw.com/Cascadia.woff2");
      }
    </style>
  </defs>
  <rect x="0" y="0" width="1045" height="926" fill="#ffffff"></rect><g stroke-linecap="round" transform="translate(10 127) rotate(0 166 220)"><path d="M-0.47 -2.16 C112.03 -2.29, 219.86 -2.47, 333.7 1.91 M331.83 -1.7 C330.69 111.39, 329.99 224.55, 331.26 440.97 M330.06 439.15 C263.66 435.05, 192.07 436.65, -2.31 441.87 M1.41 439.24 C1.76 308.53, 3.59 176.66, -1.91 -1.98" stroke="#1971c2" stroke-width="1.5" fill="none" stroke-dasharray="8 9"></path></g><g transform="translate(26 139) rotate(0 69.40991973876953 12.5)"><text x="0" y="0" font-family="Virgil, Segoe UI Emoji" font-size="20px" fill="#1e1e1e" text-anchor="start" style="white-space: pre;" direction="ltr" dominant-baseline="text-before-edge">parent thread</text></g><g stroke-linecap="round"><g transform="translate(28 171) rotate(0 72.6485361084342 0.16407303388547234)"><path d="M-1.66 1.69 C42.92 -1.47, 89.05 -4.82, 146.95 0.29 M-0.75 1.15 C36.26 4.07, 69.86 3.85, 143.46 -2.62" stroke="#1e1e1e" stroke-width="1" fill="none"></path></g></g><mask></mask><g stroke-linecap="round" transform="translate(33 194) rotate(0 101.5 47)"><path d="M2.05 -1.55 C66.61 3.29, 138.28 1.47, 203.38 2.27 M-0.29 -0.86 C48.91 0.81, 98.88 -1.89, 203.98 1.35 M202.35 -2.41 C201.5 35.05, 202.55 66.79, 202.04 93.47 M201.73 -0.34 C201.77 35.16, 200.71 72.46, 202.91 93.58 M200.87 92.58 C159.17 93.3, 111.29 89.95, -1.21 92.07 M204.29 95.77 C122.89 95.61, 40.24 96.58, -0.21 94.85 M-2.66 90.32 C4.16 59.56, -1.46 21.66, -3.98 2.33 M0.23 94.76 C-0.29 71.49, 3.04 51.23, -1.27 -1.07" stroke="#1e1e1e" stroke-width="1" fill="none"></path></g><g transform="translate(84.4600601196289 228.5) rotate(0 50.039939880371094 12.5)"><text x="50.039939880371094" y="0" font-family="Virgil, Segoe UI Emoji" font-size="20px" fill="#1e1e1e" text-anchor="middle" style="white-space: pre;" direction="ltr" dominant-baseline="text-before-edge">find tests</text></g><g stroke-linecap="round" transform="translate(34 321) rotate(0 101.5 39)"><path d="M0.41 1.36 C43.2 0.49, 95.24 2.42, 200.73 -1.91 M-0.12 -0.65 C75.38 -1.18, 150.18 -2.29, 202.62 -0.45 M205.88 3.05 C201.56 26.38, 202.72 47.5, 206.39 75.35 M202.61 1.84 C202.45 28.47, 203.59 55.48, 204.77 77.52 M201.66 79.19 C127.63 81.17, 50.07 79.52, -3.12 80.39 M202.88 76.9 C153.14 78.63, 100.7 77.86, 0.17 79.16 M3.09 81.1 C0.97 53.18, -3.93 30.94, 1.17 0.37 M-0.56 76.39 C-0.77 51.53, -0.19 26.69, 0.43 1.19" stroke="#1e1e1e" stroke-width="1" fill="none"></path></g><g transform="translate(54.580101013183594 335) rotate(0 80.9198989868164 25)"><text x="80.9198989868164" y="0" font-family="Virgil, Segoe UI Emoji" font-size="20px" fill="#1e1e1e" text-anchor="middle" style="white-space: pre;" direction="ltr" dominant-baseline="text-before-edge">create pool for </text><text x="80.9198989868164" y="25" font-family="Virgil, Segoe UI Emoji" font-size="20px" fill="#1e1e1e" text-anchor="middle" style="white-space: pre;" direction="ltr" dominant-baseline="text-before-edge">each test</text></g><g stroke-linecap="round" transform="translate(39 448) rotate(0 106.5 49.5)"><path d="M-2.88 -3.24 C68.78 4.55, 133.57 2.37, 214.54 -1.7 M0.3 0.49 C57.86 -1.31, 116.43 -0.08, 214.7 0.16 M210.22 -4 C210.12 29, 215.18 63.92, 212.87 99.06 M214.12 -1.28 C210.59 37.06, 210.53 75.31, 214.33 99.45 M216.49 96.73 C156.98 99.43, 96.93 105.74, -2.89 95.6 M214.05 99.86 C153.49 98.11, 95.93 100.13, -1.65 99.85 M-0.16 98.92 C1.38 78.46, 1.76 62.85, -2.76 -0.05 M0.46 99.76 C-1.12 72.62, 1.34 44.24, 0.23 1.93" stroke="#1e1e1e" stroke-width="1" fill="none"></path></g><g transform="translate(57.700103759765625 460) rotate(0 87.79989624023438 37.5)"><text x="87.79989624023438" y="0" font-family="Virgil, Segoe UI Emoji" font-size="20px" fill="#1e1e1e" text-anchor="middle" style="white-space: pre;" direction="ltr" dominant-baseline="text-before-edge">create multiple </text><text x="87.79989624023438" y="25" font-family="Virgil, Segoe UI Emoji" font-size="20px" fill="#1e1e1e" text-anchor="middle" style="white-space: pre;" direction="ltr" dominant-baseline="text-before-edge">workers for each </text><text x="87.79989624023438" y="50" font-family="Virgil, Segoe UI Emoji" font-size="20px" fill="#1e1e1e" text-anchor="middle" style="white-space: pre;" direction="ltr" dominant-baseline="text-before-edge">pool</text></g><g stroke-linecap="round" transform="translate(425 287) rotate(0 90.5 28)"><path d="M2.62 3.39 C69.3 1.86, 147.77 3.31, 177.79 2.47 M-0.6 -1.2 C54.69 0.83, 111.88 2.82, 182.27 1.17 M181.72 -1.61 C182.87 18.37, 183.94 32.92, 177 55.36 M181.92 -1.82 C180.15 12.45, 179.46 24.41, 182.42 57.52 M183.95 53.85 C121.04 55.54, 58.7 58.71, 3.79 53.84 M179.71 56.75 C122.05 59.77, 66.84 58.48, -1.83 55.75 M1.02 52.71 C2.65 36.82, 2.85 24.72, 1.17 -2.8 M-1.77 57.8 C-0.89 34.58, -0.35 10.31, 0.29 -1.94" stroke="#1e1e1e" stroke-width="1" fill="none"></path></g><g stroke-linecap="round"><g transform="translate(253 484.64239234790034) rotate(0 80.44386615735118 -136.49425671923382)"><path d="M-0.78 0.58 C9.9 -3.11, 52.74 19.08, 63.92 -23.22 C75.09 -65.53, 50.11 -213.08, 66.27 -253.24 C82.43 -293.4, 145.3 -262.27, 160.89 -264.18 M1.01 -0.17 C11.62 -4.12, 52.68 17.41, 63.45 -25.13 C74.23 -67.66, 49.27 -215.18, 65.64 -255.37 C82.01 -295.57, 146.22 -264.81, 161.67 -266.28" stroke="#1e1e1e" stroke-width="1" fill="none"></path></g><g transform="translate(253 484.64239234790034) rotate(0 80.44386615735118 -136.49425671923382)"><path d="M133.03 -259.87 C141.33 -262.16, 149.81 -262.32, 163.13 -266.35 M131.3 -260.55 C141.54 -263.09, 151.51 -264.87, 161.96 -265.81" stroke="#1e1e1e" stroke-width="1" fill="none"></path></g><g transform="translate(253 484.64239234790034) rotate(0 80.44386615735118 -136.49425671923382)"><path d="M136.82 -280.04 C143.84 -276.55, 151.23 -270.91, 163.13 -266.35 M135.09 -280.72 C144.15 -276.66, 152.88 -271.83, 161.96 -265.81" stroke="#1e1e1e" stroke-width="1" fill="none"></path></g></g><mask></mask><g stroke-linecap="round" transform="translate(418 392) rotate(0 102.5 28)"><path d="M-1.73 -2.73 C67.39 3.94, 138.55 3.87, 205.13 -0.09 M0.14 1.11 C45.1 0.43, 87.39 -0.44, 204.31 -1.37 M201.51 -2.17 C206.39 20.64, 203.6 39.27, 208.71 56.91 M204.57 0.06 C203.49 17.32, 205.92 35.28, 206.63 54.75 M203.63 52.46 C136.94 57.96, 66.76 60, 1.55 57.67 M204.04 56.24 C129.12 59.16, 56.92 58.4, -0.83 56.34 M2.16 52 C1.28 44.78, -2.54 29.58, -2.25 3.57 M0.45 56.39 C-1.08 41.3, -1.1 26.68, 1.06 0.77" stroke="#1e1e1e" stroke-width="1" fill="none"></path></g><g stroke-linecap="round" transform="translate(13 588) rotate(0 166.5 163)"><path d="M1.19 0.29 C73.01 -1.72, 146.18 -2.78, 333.91 0.51 M332.08 1.23 C335.13 75.05, 335.82 152.38, 333.34 326.14 M334.32 326.15 C249.03 325.95, 165.95 325.95, -0.49 325.09 M-1.18 325.45 C1.08 228.88, 2.22 134.54, -1.3 -0.57" stroke="#1971c2" stroke-width="1.5" fill="none" stroke-dasharray="8 9"></path></g><g transform="translate(39 603) rotate(0 108.95988464355469 12.5)"><text x="0" y="0" font-family="Virgil, Segoe UI Emoji" font-size="20px" fill="#1e1e1e" text-anchor="start" style="white-space: pre;" direction="ltr" dominant-baseline="text-before-edge">worker events handling</text></g><g stroke-linecap="round"><g transform="translate(37 636) rotate(0 108.9071978659976 -0.4545173269979159)"><path d="M-0.85 -1.6 C84.5 0.03, 169.49 0.85, 218.66 -1.08 M0.78 0.06 C48.5 1.23, 95.54 0.36, 217.26 0.62" stroke="#1e1e1e" stroke-width="1" fill="none"></path></g></g><mask></mask><g stroke-linecap="round" transform="translate(39 666) rotate(0 125.5 27.5)"><path d="M13.75 0 M13.75 0 C69.1 0.94, 120.45 1.53, 237.25 0 M13.75 0 C98.53 0.75, 183.81 1.41, 237.25 0 M237.25 0 C246.52 2.64, 247.37 7.09, 251 13.75 M237.25 0 C241.9 0.29, 246.54 3.68, 251 13.75 M251 13.75 C247.49 21.71, 249.04 37.35, 251 41.25 M251 13.75 C250.89 22.55, 253.18 31.62, 251 41.25 M251 41.25 C253.66 54.3, 249.03 53.19, 237.25 55 M251 41.25 C247.95 54.57, 245.88 51.42, 237.25 55 M237.25 55 C172.17 56.23, 104.54 52.7, 13.75 55 M237.25 55 C158.71 53.37, 82.53 53.58, 13.75 55 M13.75 55 C3.47 55.95, -3.33 54.33, 0 41.25 M13.75 55 C0.15 50.47, -1.15 48.36, 0 41.25 M0 41.25 C-2.91 35.25, 2.08 19.9, 0 13.75 M0 41.25 C-0.55 28.92, -0.57 20.64, 0 13.75 M0 13.75 C-0.38 4.2, 6.12 1.43, 13.75 0 M0 13.75 C-2.98 6.31, 3.63 -0.54, 13.75 0" stroke="#1e1e1e" stroke-width="1" fill="none"></path></g><g transform="translate(62 682) rotate(0 103.09988403320312 12.5)"><text x="0" y="0" font-family="Virgil, Segoe UI Emoji" font-size="20px" fill="#1e1e1e" text-anchor="start" style="white-space: pre;" direction="ltr" dominant-baseline="text-before-edge">thread error handling</text></g><g stroke-linecap="round" transform="translate(37 738) rotate(0 125.5 26.5)"><path d="M13.25 0 M13.25 0 C69.15 4.55, 128.03 2.58, 237.75 0 M13.25 0 C82.49 -0.45, 147.79 -1.55, 237.75 0 M237.75 0 C242.69 -2.61, 248.64 4.52, 251 13.25 M237.75 0 C249.62 -4.18, 253.89 -0.1, 251 13.25 M251 13.25 C254.21 21.23, 254.06 25.99, 251 39.75 M251 13.25 C251.13 20.73, 251.26 24.88, 251 39.75 M251 39.75 C251.03 52.16, 247.17 55.66, 237.75 53 M251 39.75 C255.47 51.59, 244.5 49.95, 237.75 53 M237.75 53 C150.02 46.63, 61.06 51.18, 13.25 53 M237.75 53 C152.54 52.82, 65.16 51.87, 13.25 53 M13.25 53 C3.07 56.65, -0.85 47.47, 0 39.75 M13.25 53 C5.5 49.17, 4.5 44.15, 0 39.75 M0 39.75 C0.82 31.22, -2.2 25.73, 0 13.25 M0 39.75 C1.54 28.42, 1.09 19.26, 0 13.25 M0 13.25 C-3.33 2.41, 5.86 -0.38, 13.25 0 M0 13.25 C-0.44 6.18, 6.07 -2.98, 13.25 0" stroke="#1e1e1e" stroke-width="1" fill="none"></path></g><g transform="translate(83.91009521484375 752) rotate(0 78.58990478515625 12.5)"><text x="78.58990478515625" y="0" font-family="Virgil, Segoe UI Emoji" font-size="20px" fill="#1e1e1e" text-anchor="middle" style="white-space: pre;" direction="ltr" dominant-baseline="text-before-edge">finished threads</text></g><g stroke-linecap="round" transform="translate(376 129) rotate(0 181.5 217.5000000000001)"><path d="M0.37 0.72 C107.25 1.09, 214.57 0.02, 362.2 -0.28 M362.12 0.41 C361.77 107.46, 361.32 214.14, 363.13 434.13 M363.85 435.03 C243.24 434.13, 121.43 434.01, -0.33 434.41 M-0.83 435.68 C0.7 339.93, 1.92 245.09, 0.5 0.95" stroke="#1971c2" stroke-width="1.5" fill="none" stroke-dasharray="8 9"></path></g><g stroke-linecap="round" transform="translate(419 183) rotate(0 112 36.5)"><path d="M0.54 -1.48 C66.16 -1.46, 130.75 -2.37, 222.33 0.02 M-0.55 -0.66 C53.19 1.01, 107.53 0.39, 224.45 0.51 M223.75 0.12 C224.66 18.85, 225.6 40.17, 225.86 72.68 M223.51 -0.98 C224.42 24.5, 224.62 51.67, 224.17 72.35 M222.3 72.91 C141.26 74.23, 56.12 73.48, 1.19 74.15 M224.64 72.44 C136.29 71.07, 47.85 71.01, -0.55 72.39 M1.37 73.35 C0 49.93, -0.95 31.02, 0.3 0.76 M-0.51 73.01 C0.45 52.08, 0.61 29.87, -0.38 -0.78" stroke="#1e1e1e" stroke-width="1" fill="none"></path></g><g transform="translate(500.4300308227539 207) rotate(0 30.569969177246094 12.5)"><text x="30.569969177246094" y="0" font-family="Virgil, Segoe UI Emoji" font-size="20px" fill="#1e1e1e" text-anchor="middle" style="white-space: pre;" direction="ltr" dominant-baseline="text-before-edge">worker</text></g><g transform="translate(405 144) rotate(0 62.80992889404297 12.5)"><text x="0" y="0" font-family="Virgil, Segoe UI Emoji" font-size="20px" fill="#1e1e1e" text-anchor="start" style="white-space: pre;" direction="ltr" dominant-baseline="text-before-edge">orchestrator</text></g><g stroke-linecap="round"><g transform="translate(398 169) rotate(0 70.56559025961906 1.1760519091039896)"><path d="M1.45 1.22 C37.83 1.49, 74.04 2.21, 141.32 0.81 M-0.19 -0.59 C43.98 1.04, 85.8 0.9, 140.04 2.95" stroke="#1e1e1e" stroke-width="1" fill="none"></path></g></g><mask></mask><g transform="translate(444 303) rotate(0 68.02991485595703 12.5)"><text x="0" y="0" font-family="Virgil, Segoe UI Emoji" font-size="20px" fill="#1e1e1e" text-anchor="start" style="white-space: pre;" direction="ltr" dominant-baseline="text-before-edge">stages timers</text></g><g transform="translate(443 409) rotate(0 80.59990692138672 12.5)"><text x="0" y="0" font-family="Virgil, Segoe UI Emoji" font-size="20px" fill="#1e1e1e" text-anchor="start" style="white-space: pre;" direction="ltr" dominant-baseline="text-before-edge">subscribe events</text></g><g stroke-linecap="round" transform="translate(34 806) rotate(0 126.5 27)"><path d="M13.5 0 M13.5 0 C84.38 0.42, 156.33 1.53, 239.5 0 M13.5 0 C97.58 -2.06, 181.92 0.85, 239.5 0 M239.5 0 C249.18 -2.52, 251.12 0.61, 253 13.5 M239.5 0 C245.5 -2.71, 253.12 7.54, 253 13.5 M253 13.5 C253.59 15.27, 252.55 28.52, 253 40.5 M253 13.5 C252.06 20.54, 254.47 29.91, 253 40.5 M253 40.5 C255.83 50.53, 247.5 54.03, 239.5 54 M253 40.5 C257.11 50.18, 251.55 58.47, 239.5 54 M239.5 54 C160.02 51.04, 71.68 51.32, 13.5 54 M239.5 54 C195.28 55.25, 147.87 56.18, 13.5 54 M13.5 54 C5.8 52.91, -0.93 48.15, 0 40.5 M13.5 54 C8.7 53.03, -1.28 50.59, 0 40.5 M0 40.5 C-4.47 33.65, -2.32 29.48, 0 13.5 M0 40.5 C1.67 35.37, -1.64 30.37, 0 13.5 M0 13.5 C-3.17 7.12, 2.52 -3.33, 13.5 0 M0 13.5 C-2.31 6.16, 4.06 -0.44, 13.5 0" stroke="#1e1e1e" stroke-width="1" fill="none"></path></g><g transform="translate(84 816) rotate(0 62.819923400878906 12.5)"><text x="0" y="0" font-family="Virgil, Segoe UI Emoji" font-size="20px" fill="#1e1e1e" text-anchor="start" style="white-space: pre;" direction="ltr" dominant-baseline="text-before-edge">test reports</text></g><g stroke-linecap="round" transform="translate(756 128) rotate(0 139.5 216)"><path d="M-1.08 -0.77 C96.6 -3.28, 189.21 -2.44, 277.94 -0.78 M278.95 0.92 C277.88 131.72, 277.02 265.86, 278.8 432.08 M277.64 433.07 C174.43 432.61, 66.35 430.99, -0.52 431.66 M-0.6 433.02 C1.61 295.4, 1.88 159.17, 0.17 -0.57" stroke="#6741d9" stroke-width="1.5" fill="none" stroke-dasharray="8 9"></path></g><g transform="translate(770 139) rotate(0 58.18993377685547 12.5)"><text x="0" y="0" font-family="Virgil, Segoe UI Emoji" font-size="20px" fill="#1e1e1e" text-anchor="start" style="white-space: pre;" direction="ltr" dominant-baseline="text-before-edge">child thread</text></g><g stroke-linecap="round"><g transform="translate(774 169) rotate(0 55.73814892210066 -1.3603506303774395)"><path d="M1.67 0.02 C26.76 0.88, 52.08 -1.48, 110.77 -2.93 M-0.77 -0.95 C40.13 -0.68, 78.27 -1.22, 112.24 -1.68" stroke="#1e1e1e" stroke-width="1" fill="none"></path></g></g><mask></mask><g stroke-linecap="round"><g transform="translate(586 175) rotate(0 165.91243440434334 -41.45402934291691)"><path d="M-0.34 -0.34 C7.36 -12.77, -2.37 -62.98, 46.69 -74.94 C95.75 -86.89, 246.45 -84.45, 294.03 -72.08 C341.61 -59.71, 326.13 -12.93, 332.16 -0.75 M1.69 -1.56 C9.15 -13.76, -3.54 -61.26, 45.58 -73.35 C94.7 -85.44, 249.12 -86.29, 296.42 -74.08 C343.71 -61.86, 323.42 -12.13, 329.36 -0.07" stroke="#1e1e1e" stroke-width="1" fill="none"></path></g><g transform="translate(586 175) rotate(0 165.91243440434334 -41.45402934291691)"><path d="M317.37 -28.33 C321.94 -19.86, 326.82 -6.78, 327.99 -1.34 M317.28 -27.99 C321.29 -17.4, 327.08 -7.6, 330.14 0.39" stroke="#1e1e1e" stroke-width="1" fill="none"></path></g><g transform="translate(586 175) rotate(0 165.91243440434334 -41.45402934291691)"><path d="M337.88 -29.18 C335.4 -20.48, 333.23 -7.1, 327.99 -1.34 M337.78 -28.84 C334 -18.03, 331.99 -7.91, 330.14 0.39" stroke="#1e1e1e" stroke-width="1" fill="none"></path></g></g><mask></mask><g stroke-linecap="round" transform="translate(685 10) rotate(0 68 41.5)"><path d="M-0.59 -1.1 C34.63 -0.95, 72.09 1.57, 135.52 0.72 M0.65 0.76 C30.41 -0.18, 59.46 0.82, 135.69 0.72 M136.68 0.24 C136.79 33.39, 136.4 63.46, 136.37 81.02 M135.07 0.86 C136.18 30.53, 134.43 58.57, 135.86 83.3 M134.66 84.73 C97.23 80.87, 56.93 81.96, -0.89 83.53 M136.68 83.82 C81.43 81.67, 26.9 83.16, 0.27 83.42 M0.44 83.72 C0.38 51.5, -2.09 21.76, 1.02 -0.42 M-0.67 83.3 C1.57 56.55, 1.64 28.63, 0.2 -0.31" stroke="#1e1e1e" stroke-width="1" fill="none"></path></g><g transform="translate(691 17.5) rotate(0 62.920143127441406 30)"><text x="0" y="0" font-family="Virgil, Segoe UI Emoji" font-size="16px" fill="#1e1e1e" text-anchor="start" style="white-space: pre;" direction="ltr" dominant-baseline="text-before-edge">config:</text><text x="0" y="20" font-family="Virgil, Segoe UI Emoji" font-size="16px" fill="#1e1e1e" text-anchor="start" style="white-space: pre;" direction="ltr" dominant-baseline="text-before-edge">- iterations</text><text x="0" y="40" font-family="Virgil, Segoe UI Emoji" font-size="16px" fill="#1e1e1e" text-anchor="start" style="white-space: pre;" direction="ltr" dominant-baseline="text-before-edge">- test file path</text></g><g stroke-linecap="round" transform="translate(779 183) rotate(0 99 36.5)"><path d="M1.58 3.2 C79.94 4.34, 158.82 1.41, 199.39 -3.7 M0.12 1.12 C64.64 -1.09, 128.23 -2.62, 198 -1.24 M201.89 -0.75 C199.46 18.39, 198.76 44.7, 199.91 71.12 M199.58 -0.76 C195.24 26.97, 195.79 55.16, 198.79 72.89 M200.99 72.95 C148.15 70.74, 92.15 76.51, 1.31 76.87 M199.01 71.3 C154.96 74.22, 110.11 76.29, -1.04 72.67 M3.26 74.57 C-1.52 57.31, -0.23 40.8, -3.99 0.52 M-0.61 71.29 C0.23 48.53, -0.67 22.52, -1.4 1.64" stroke="#1e1e1e" stroke-width="1" fill="none"></path></g><g transform="translate(851.8239364624023 209.5) rotate(0 26.176063537597656 10)"><text x="26.176063537597656" y="0" font-family="Virgil, Segoe UI Emoji" font-size="16px" fill="#1e1e1e" text-anchor="middle" style="white-space: pre;" direction="ltr" dominant-baseline="text-before-edge">thread</text></g><g stroke-linecap="round"><g transform="translate(415 239) rotate(0 -55.35202222475323 205.50552980530077)"><path d="M-0.94 0.09 C-10.46 7.09, -47.44 -10.62, -57.15 43.2 C-66.86 97.01, -50.16 261.68, -59.21 322.96 C-68.26 384.24, -102.51 396.32, -111.48 410.88 M0.77 -0.91 C-8.91 6.21, -48.03 -13.02, -58.18 41.18 C-68.32 95.37, -51.29 262.47, -60.09 324.26 C-68.88 386.05, -102.42 397.57, -110.96 411.92" stroke="#1e1e1e" stroke-width="1" fill="none"></path></g><g transform="translate(415 239) rotate(0 -55.35202222475323 205.50552980530077)"><path d="M-98.64 384.25 C-101.81 392.22, -105.83 401.61, -111.16 410.27 M-99.6 383.55 C-102.14 391.16, -105.2 398.62, -110.6 412.7" stroke="#1e1e1e" stroke-width="1" fill="none"></path></g><g transform="translate(415 239) rotate(0 -55.35202222475323 205.50552980530077)"><path d="M-83.86 398.49 C-91.58 402.11, -99.99 407.25, -111.16 410.27 M-84.82 397.79 C-91.02 402, -97.7 405.96, -110.6 412.7" stroke="#1e1e1e" stroke-width="1" fill="none"></path></g></g><mask></mask><g stroke-linecap="round"><g transform="translate(779.0000000000002 392.85719223289664) rotate(0 -66.64681616896303 -90.49364103616082)"><path d="M0.39 0.89 C-8.37 -3.01, -42.4 3.87, -52.16 -24.3 C-61.91 -52.48, -44.56 -142.72, -58.14 -168.18 C-71.71 -193.64, -121.33 -175.49, -133.61 -177.07 M-0.86 0.31 C-9.75 -3.87, -42.98 1.75, -52.66 -26.14 C-62.35 -54.03, -45.47 -142.04, -58.98 -167.03 C-72.48 -192.02, -121.41 -174.3, -133.68 -176.07" stroke="#1e1e1e" stroke-width="1" fill="none"></path></g><g transform="translate(779.0000000000002 392.85719223289664) rotate(0 -66.64681616896303 -90.49364103616082)"><path d="M-105.24 -187.81 C-114.95 -184.94, -125.47 -181.31, -134.03 -174.07 M-106.06 -189.12 C-112.37 -186.66, -119.86 -183.41, -134.28 -175.62" stroke="#1e1e1e" stroke-width="1" fill="none"></path></g><g transform="translate(779.0000000000002 392.85719223289664) rotate(0 -66.64681616896303 -90.49364103616082)"><path d="M-103.1 -167.4 C-113.38 -171.38, -124.61 -174.61, -134.03 -174.07 M-103.92 -168.71 C-110.81 -171.08, -118.8 -172.64, -134.28 -175.62" stroke="#1e1e1e" stroke-width="1" fill="none"></path></g></g><mask></mask><g stroke-linecap="round" transform="translate(783 284) rotate(0 101.5 31.5)"><path d="M0.45 1.32 C65.54 1.03, 130.13 0.41, 204.73 1.13 M0.33 -0.85 C79.85 2.19, 158.36 2.15, 202.12 -0.58 M204.82 -1.41 C203.11 22.89, 203.78 41.91, 202.5 61.95 M203.97 -0.78 C202.24 13.85, 201.8 25.34, 203.89 62.88 M201.58 61.96 C123.25 61.01, 42.83 62.3, 1.7 62.45 M202.2 62.4 C134.09 61.96, 66.34 62.34, 0.44 63.42 M-0.25 64.6 C-0.24 45.44, 1.05 24.71, -0.34 0.29 M0.39 63.02 C0.26 49.05, -0.52 33.13, 0.48 0.02" stroke="#1e1e1e" stroke-width="1" fill="none"></path></g><g transform="translate(828 304) rotate(0 58.00811767578125 10)"><text x="0" y="0" font-family="Virgil, Segoe UI Emoji" font-size="16px" fill="#1e1e1e" text-anchor="start" style="white-space: pre;" direction="ltr" dominant-baseline="text-before-edge">test execution</text></g><g stroke-linecap="round" transform="translate(782 387) rotate(0 103.5 29)"><path d="M0.42 1.66 C43.8 -0.59, 87.6 -0.99, 207.02 -0.97 M0.65 -0.41 C63.95 -1.43, 128.48 0.02, 207.13 -0.47 M206.58 0.24 C204.8 16.89, 206.16 35.27, 208.58 58.63 M207.55 0.66 C206.61 20.3, 207.49 42.08, 206.09 57.95 M205.63 57.19 C139.22 55.89, 66.73 55.85, -0.81 58.24 M206.72 58.18 C145.88 58.63, 86.24 59.98, 0.23 57.76 M-0.38 59.37 C-1.27 45.87, -1.51 28.85, -0.82 -0.71 M-0.22 58.64 C1 40.96, 0.18 21.07, 0.65 -0.41" stroke="#1e1e1e" stroke-width="1" fill="none"></path></g><g transform="translate(843 404) rotate(0 33.64807891845703 10)"><text x="0" y="0" font-family="Virgil, Segoe UI Emoji" font-size="16px" fill="#1e1e1e" text-anchor="start" style="white-space: pre;" direction="ltr" dominant-baseline="text-before-edge">reporting</text></g><g stroke-linecap="round"><g transform="translate(84.00000000000011 283) rotate(0 -0.05707909248133092 14.95645046383143)"><path d="M0.02 -0.49 C0.13 4.55, -0.26 25.09, -0.13 30.41" stroke="#1e1e1e" stroke-width="1.5" fill="none" stroke-dasharray="8 9"></path></g></g><mask></mask><g stroke-linecap="round"><g transform="translate(89 402) rotate(0 -2.6188300386071433 21.655206395685667)"><path d="M-1.1 -0.37 C-1.85 6.87, -3.73 36.51, -4.14 43.68" stroke="#1e1e1e" stroke-width="1.5" fill="none" stroke-dasharray="8 9"></path></g></g><mask></mask><g stroke-linecap="round"><g transform="translate(456 256) rotate(0 -0.7385150894522212 16.03811704963445)"><path d="M-0.41 -0.2 C-0.73 5.05, -1.06 26.9, -1.06 32.28" stroke="#1e1e1e" stroke-width="1.5" fill="none" stroke-dasharray="8 9"></path></g></g><mask></mask><g stroke-linecap="round"><g transform="translate(454 345) rotate(0 1.017571885618736 21.750715278089046)"><path d="M1.04 -0.72 C1.08 6.79, 0.9 36.75, 1.05 44.22" stroke="#1e1e1e" stroke-width="1.5" fill="none" stroke-dasharray="8 9"></path></g></g><mask></mask><g stroke-linecap="round"><g transform="translate(823 258) rotate(0 -0.5271377339959145 13.034442283213139)"><path d="M-0.96 0.42 C-0.8 4.79, -0.42 21.75, -0.09 25.65" stroke="#1e1e1e" stroke-width="1.5" fill="none" stroke-dasharray="8 9"></path></g></g><mask></mask><g stroke-linecap="round"><g transform="translate(828 345) rotate(0 0.6518669173210583 21.70174448341129)"><path d="M0.34 0.76 C0.31 7.8, 0.78 35.76, 0.96 42.65" stroke="#1e1e1e" stroke-width="1.5" fill="none" stroke-dasharray="8 9"></path></g></g><mask></mask><g stroke-linecap="round" transform="translate(26 650) rotate(0 140 113.5)"><path d="M32 0 M32 0 C94.61 1.72, 158.19 1.91, 248 0 M248 0 C269.03 1.96, 280.5 10.99, 280 32 M280 32 C280.79 63.97, 281.18 97.55, 280 195 M280 195 C278.95 215.8, 269.5 225.58, 248 227 M248 227 C190.71 228.89, 134.33 228, 32 227 M32 227 C8.85 227.92, -0.85 214.56, 0 195 M0 195 C0.15 135.05, -0.76 78.68, 0 32 M0 32 C1.42 12.4, 10.63 0.74, 32 0" stroke="#1e1e1e" stroke-width="1.5" fill="none" stroke-dasharray="1.5 7"></path></g><g stroke-linecap="round" transform="translate(376 592) rotate(0 180.5 162)"><path d="M-0.84 0.8 C95.83 1.83, 192.17 -0.02, 360.24 0.18 M361.51 -0.32 C363 119.22, 360.97 239.26, 359.64 322.95 M361.66 324.54 C218.77 326.85, 77.84 324.97, 1.22 322.76 M-0.41 325.24 C1.6 253.17, 0.37 180.71, -0.52 -1.11" stroke="#1971c2" stroke-width="1.5" fill="none" stroke-dasharray="8 9"></path></g><g transform="translate(386 604) rotate(0 46.048095703125 10)"><text x="0" y="0" font-family="Virgil, Segoe UI Emoji" font-size="16px" fill="#1e1e1e" text-anchor="start" style="white-space: pre;" direction="ltr" dominant-baseline="text-before-edge">performance</text></g><g stroke-linecap="round"><g transform="translate(385 634) rotate(0 46.492110803723335 -0.7866689749062061)"><path d="M-2.26 -1.26 C31.26 0.79, 56.59 -0.72, 95.24 -3.38 M-0.16 1.8 C35.98 -3.39, 72.06 -2.6, 90.49 -1.52" stroke="#1e1e1e" stroke-width="1" fill="none"></path></g></g><mask></mask><g stroke-linecap="round" transform="translate(398 655) rotate(0 110 27)"><path d="M2.74 0.56 C55.53 -0.33, 105.97 0.17, 218.95 3.44 M-0.66 -0.64 C64.92 -0.51, 128.86 1.72, 218.57 0.24 M220.97 1.08 C217.24 14.52, 216.12 26.91, 216.29 53.73 M218.34 1.69 C219.22 13.8, 219.65 26.65, 221.08 55.84 M222.04 52.99 C158.39 47.44, 96.57 49.66, -0.02 55.58 M219.1 54.18 C145.27 52.63, 70.32 53.23, -1 53.99 M3.6 52.56 C-4.59 34.32, -1.05 23.57, 0.67 3.11 M1.51 55.28 C-0.4 35.29, -1.02 16.09, 1.91 1.92" stroke="#1e1e1e" stroke-width="1" fill="none"></path></g><g transform="translate(464 670) rotate(0 30.704071044921875 20)"><text x="0" y="0" font-family="Virgil, Segoe UI Emoji" font-size="16px" fill="#1e1e1e" text-anchor="start" style="white-space: pre;" direction="ltr" dominant-baseline="text-before-edge">analysis</text><text x="0" y="20" font-family="Virgil, Segoe UI Emoji" font-size="16px" fill="#1e1e1e" text-anchor="start" style="white-space: pre;" direction="ltr" dominant-baseline="text-before-edge"></text></g><g stroke-linecap="round"><g transform="translate(289 827) rotate(0 51.95723254978657 -77.97992511838675)"><path d="M-2.33 -2.42 C39.06 -51.83, 66.61 -92.77, 106.24 -150.43 M-0.56 -1.47 C38.72 -53.96, 74.09 -110.7, 105.02 -154.49" stroke="#1e1e1e" stroke-width="1" fill="none"></path></g><g transform="translate(289 827) rotate(0 51.95723254978657 -77.97992511838675)"><path d="M95.25 -127.85 C103.86 -137.82, 100.99 -140.2, 105.26 -150.92 M97.02 -126.9 C101.38 -134.17, 101.67 -146.45, 104.04 -154.97" stroke="#1e1e1e" stroke-width="1" fill="none"></path></g><g transform="translate(289 827) rotate(0 51.95723254978657 -77.97992511838675)"><path d="M78.31 -139.43 C91.93 -145.98, 94.29 -144.78, 105.26 -150.92 M80.08 -138.48 C90.49 -141.76, 96.81 -149.91, 104.04 -154.97" stroke="#1e1e1e" stroke-width="1" fill="none"></path></g></g><mask></mask><g stroke-linecap="round" transform="translate(395 759) rotate(0 111 27)"><path d="M-2.94 -2.58 C51.85 4.08, 105.39 1.52, 219.3 -3.27 M1.67 -0.34 C78.48 -3.53, 157.85 -3.42, 222.96 -0.05 M222.61 -0.5 C221.94 12.06, 218.52 30.3, 221.85 57.74 M222.8 0.37 C222.63 12.85, 222.79 21.8, 220.7 54.5 M223.6 51.77 C150.84 53.26, 77.29 54.03, 0.86 55.73 M223.38 52.58 C175.93 54.93, 127.01 55.56, 1.05 52.57 M-0.61 57.63 C-1.44 33.37, 1.22 11.13, 1.59 -1.1 M0.03 55.56 C-0.77 43.31, 0.49 32.38, -1.85 -0.94" stroke="#1e1e1e" stroke-width="1" fill="none"></path></g><g transform="translate(449 776) rotate(0 53.936119079589844 10)"><text x="0" y="0" font-family="Virgil, Segoe UI Emoji" font-size="16px" fill="#1e1e1e" text-anchor="start" style="white-space: pre;" direction="ltr" dominant-baseline="text-before-edge">display report</text></g><g stroke-linecap="round"><g transform="translate(438 713) rotate(0 2.0545669578943944 23.31560619175434)"><path d="M3.12 -1.88 C-2.14 12.17, 4.23 27.28, 2.58 48.51" stroke="#1e1e1e" stroke-width="1.5" fill="none" stroke-dasharray="8 9"></path></g></g><mask></mask><g stroke-linecap="round" transform="translate(26 14) rotate(0 128.5 42)"><path d="M0 0 C60.18 0, 120.37 0, 257 0 M0 0 C70.61 0, 141.22 0, 257 0 M257 0 C257 18.01, 257 36.01, 257 84 M257 0 C257 20.12, 257 40.24, 257 84 M257 84 C179.88 84, 102.77 84, 0 84 M257 84 C163.17 84, 69.34 84, 0 84 M0 84 C0 58.69, 0 33.39, 0 0 M0 84 C0 52.11, 0 20.22, 0 0" stroke="#1e1e1e" stroke-width="4" fill="none"></path></g><g stroke-linecap="round" transform="translate(59 27) rotate(0 10.5 11)"><path d="M21 11 C21 11.64, 20.95 12.28, 20.84 12.91 C20.73 13.54, 20.57 14.16, 20.37 14.76 C20.16 15.36, 19.9 15.95, 19.59 16.5 C19.29 17.05, 18.93 17.58, 18.54 18.07 C18.15 18.56, 17.71 19.02, 17.25 19.43 C16.78 19.84, 16.28 20.21, 15.75 20.53 C15.22 20.84, 14.66 21.12, 14.09 21.34 C13.52 21.55, 12.92 21.72, 12.32 21.83 C11.72 21.94, 11.11 22, 10.5 22 C9.89 22, 9.28 21.94, 8.68 21.83 C8.08 21.72, 7.48 21.55, 6.91 21.34 C6.34 21.12, 5.78 20.84, 5.25 20.53 C4.72 20.21, 4.22 19.84, 3.75 19.43 C3.29 19.02, 2.85 18.56, 2.46 18.07 C2.07 17.58, 1.71 17.05, 1.41 16.5 C1.1 15.95, 0.84 15.36, 0.63 14.76 C0.43 14.16, 0.27 13.54, 0.16 12.91 C0.05 12.28, 0 11.64, 0 11 C0 10.36, 0.05 9.72, 0.16 9.09 C0.27 8.46, 0.43 7.84, 0.63 7.24 C0.84 6.64, 1.1 6.05, 1.41 5.5 C1.71 4.95, 2.07 4.42, 2.46 3.93 C2.85 3.44, 3.29 2.98, 3.75 2.57 C4.22 2.16, 4.72 1.79, 5.25 1.47 C5.78 1.16, 6.34 0.88, 6.91 0.66 C7.48 0.45, 8.08 0.28, 8.68 0.17 C9.28 0.06, 9.89 0, 10.5 0 C11.11 0, 11.72 0.06, 12.32 0.17 C12.92 0.28, 13.52 0.45, 14.09 0.66 C14.66 0.88, 15.22 1.16, 15.75 1.47 C16.28 1.79, 16.78 2.16, 17.25 2.57 C17.71 2.98, 18.15 3.44, 18.54 3.93 C18.93 4.42, 19.29 4.95, 19.59 5.5 C19.9 6.05, 20.16 6.64, 20.37 7.24 C20.57 7.84, 20.73 8.46, 20.84 9.09 C20.95 9.72, 20.97 10.68, 21 11 C21.03 11.32, 21.03 10.68, 21 11" stroke="none" stroke-width="0" fill="#1971c2"></path><path d="M21 11 C21 11.64, 20.95 12.28, 20.84 12.91 C20.73 13.54, 20.57 14.16, 20.37 14.76 C20.16 15.36, 19.9 15.95, 19.59 16.5 C19.29 17.05, 18.93 17.58, 18.54 18.07 C18.15 18.56, 17.71 19.02, 17.25 19.43 C16.78 19.84, 16.28 20.21, 15.75 20.53 C15.22 20.84, 14.66 21.12, 14.09 21.34 C13.52 21.55, 12.92 21.72, 12.32 21.83 C11.72 21.94, 11.11 22, 10.5 22 C9.89 22, 9.28 21.94, 8.68 21.83 C8.08 21.72, 7.48 21.55, 6.91 21.34 C6.34 21.12, 5.78 20.84, 5.25 20.53 C4.72 20.21, 4.22 19.84, 3.75 19.43 C3.29 19.02, 2.85 18.56, 2.46 18.07 C2.07 17.58, 1.71 17.05, 1.41 16.5 C1.1 15.95, 0.84 15.36, 0.63 14.76 C0.43 14.16, 0.27 13.54, 0.16 12.91 C0.05 12.28, 0 11.64, 0 11 C0 10.36, 0.05 9.72, 0.16 9.09 C0.27 8.46, 0.43 7.84, 0.63 7.24 C0.84 6.64, 1.1 6.05, 1.41 5.5 C1.71 4.95, 2.07 4.42, 2.46 3.93 C2.85 3.44, 3.29 2.98, 3.75 2.57 C4.22 2.16, 4.72 1.79, 5.25 1.47 C5.78 1.16, 6.34 0.88, 6.91 0.66 C7.48 0.45, 8.08 0.28, 8.68 0.17 C9.28 0.06, 9.89 0, 10.5 0 C11.11 0, 11.72 0.06, 12.32 0.17 C12.92 0.28, 13.52 0.45, 14.09 0.66 C14.66 0.88, 15.22 1.16, 15.75 1.47 C16.28 1.79, 16.78 2.16, 17.25 2.57 C17.71 2.98, 18.15 3.44, 18.54 3.93 C18.93 4.42, 19.29 4.95, 19.59 5.5 C19.9 6.05, 20.16 6.64, 20.37 7.24 C20.57 7.84, 20.73 8.46, 20.84 9.09 C20.95 9.72, 20.97 10.68, 21 11 C21.03 11.32, 21.03 10.68, 21 11" stroke="#1971c2" stroke-width="1" fill="none"></path></g><g transform="translate(102 30) rotate(0 55.52812957763672 10)"><text x="0" y="0" font-family="Virgil, Segoe UI Emoji" font-size="16px" fill="#1971c2" text-anchor="start" style="white-space: pre;" direction="ltr" dominant-baseline="text-before-edge">parent thread</text></g><g stroke-linecap="round" transform="translate(60 65) rotate(0 9 9.5)"><path d="M18 9.5 C18 10.05, 17.95 10.61, 17.86 11.15 C17.77 11.69, 17.64 12.23, 17.46 12.75 C17.28 13.27, 17.05 13.77, 16.79 14.25 C16.53 14.73, 16.23 15.19, 15.89 15.61 C15.56 16.03, 15.18 16.42, 14.79 16.78 C14.39 17.13, 13.95 17.45, 13.5 17.73 C13.05 18, 12.57 18.24, 12.08 18.43 C11.59 18.62, 11.08 18.76, 10.56 18.86 C10.05 18.95, 9.52 19, 9 19 C8.48 19, 7.95 18.95, 7.44 18.86 C6.92 18.76, 6.41 18.62, 5.92 18.43 C5.43 18.24, 4.95 18, 4.5 17.73 C4.05 17.45, 3.61 17.13, 3.21 16.78 C2.82 16.42, 2.44 16.03, 2.11 15.61 C1.77 15.19, 1.47 14.73, 1.21 14.25 C0.95 13.77, 0.72 13.27, 0.54 12.75 C0.36 12.23, 0.23 11.69, 0.14 11.15 C0.05 10.61, 0 10.05, 0 9.5 C0 8.95, 0.05 8.39, 0.14 7.85 C0.23 7.31, 0.36 6.77, 0.54 6.25 C0.72 5.73, 0.95 5.23, 1.21 4.75 C1.47 4.27, 1.77 3.81, 2.11 3.39 C2.44 2.97, 2.82 2.58, 3.21 2.22 C3.61 1.87, 4.05 1.55, 4.5 1.27 C4.95 1, 5.43 0.76, 5.92 0.57 C6.41 0.38, 6.92 0.24, 7.44 0.14 C7.95 0.05, 8.48 0, 9 0 C9.52 0, 10.05 0.05, 10.56 0.14 C11.08 0.24, 11.59 0.38, 12.08 0.57 C12.57 0.76, 13.05 1, 13.5 1.27 C13.95 1.55, 14.39 1.87, 14.79 2.22 C15.18 2.58, 15.56 2.97, 15.89 3.39 C16.23 3.81, 16.53 4.27, 16.79 4.75 C17.05 5.23, 17.28 5.73, 17.46 6.25 C17.64 6.77, 17.77 7.31, 17.86 7.85 C17.95 8.39, 17.98 9.23, 18 9.5 C18.02 9.77, 18.02 9.23, 18 9.5" stroke="none" stroke-width="0" fill="#6741d9"></path><path d="M18 9.5 C18 10.05, 17.95 10.61, 17.86 11.15 C17.77 11.69, 17.64 12.23, 17.46 12.75 C17.28 13.27, 17.05 13.77, 16.79 14.25 C16.53 14.73, 16.23 15.19, 15.89 15.61 C15.56 16.03, 15.18 16.42, 14.79 16.78 C14.39 17.13, 13.95 17.45, 13.5 17.73 C13.05 18, 12.57 18.24, 12.08 18.43 C11.59 18.62, 11.08 18.76, 10.56 18.86 C10.05 18.95, 9.52 19, 9 19 C8.48 19, 7.95 18.95, 7.44 18.86 C6.92 18.76, 6.41 18.62, 5.92 18.43 C5.43 18.24, 4.95 18, 4.5 17.73 C4.05 17.45, 3.61 17.13, 3.21 16.78 C2.82 16.42, 2.44 16.03, 2.11 15.61 C1.77 15.19, 1.47 14.73, 1.21 14.25 C0.95 13.77, 0.72 13.27, 0.54 12.75 C0.36 12.23, 0.23 11.69, 0.14 11.15 C0.05 10.61, 0 10.05, 0 9.5 C0 8.95, 0.05 8.39, 0.14 7.85 C0.23 7.31, 0.36 6.77, 0.54 6.25 C0.72 5.73, 0.95 5.23, 1.21 4.75 C1.47 4.27, 1.77 3.81, 2.11 3.39 C2.44 2.97, 2.82 2.58, 3.21 2.22 C3.61 1.87, 4.05 1.55, 4.5 1.27 C4.95 1, 5.43 0.76, 5.92 0.57 C6.41 0.38, 6.92 0.24, 7.44 0.14 C7.95 0.05, 8.48 0, 9 0 C9.52 0, 10.05 0.05, 10.56 0.14 C11.08 0.24, 11.59 0.38, 12.08 0.57 C12.57 0.76, 13.05 1, 13.5 1.27 C13.95 1.55, 14.39 1.87, 14.79 2.22 C15.18 2.58, 15.56 2.97, 15.89 3.39 C16.23 3.81, 16.53 4.27, 16.79 4.75 C17.05 5.23, 17.28 5.73, 17.46 6.25 C17.64 6.77, 17.77 7.31, 17.86 7.85 C17.95 8.39, 17.98 9.23, 18 9.5 C18.02 9.77, 18.02 9.23, 18 9.5" stroke="#6741d9" stroke-width="4" fill="none"></path></g><g transform="translate(97 67) rotate(0 46.55210876464844 10)"><text x="0" y="0" font-family="Virgil, Segoe UI Emoji" font-size="16px" fill="#6741d9" text-anchor="start" style="white-space: pre;" direction="ltr" dominant-baseline="text-before-edge">child thread</text></g></svg>